<mxfile host="app.diagrams.net" agent="Mozilla/5.0 (Windows NT 10.0; Win64; x64; rv:128.0) Gecko/20100101 Firefox/128.0" version="24.7.12">
  <diagram name="Page-1" id="ihwwLPq4TxyNKXi9vfNQ">
    <mxGraphModel dx="1658" dy="862" grid="0" gridSize="10" guides="1" tooltips="1" connect="1" arrows="1" fold="1" page="1" pageScale="1" pageWidth="850" pageHeight="1100" math="0" shadow="0">
      <root>
        <mxCell id="0" />
        <mxCell id="1" parent="0" />
        <mxCell id="uKpQfgs0L2vMdA5PXsSt-1" value="&lt;b&gt;respuesta = numero&lt;/b&gt;" style="rounded=0;whiteSpace=wrap;html=1;" vertex="1" parent="1">
          <mxGeometry x="571" y="692" width="120" height="60" as="geometry" />
        </mxCell>
        <mxCell id="uKpQfgs0L2vMdA5PXsSt-2" value="&lt;div&gt;respuesta = 0&lt;/div&gt;&lt;div&gt;secreto = 7&lt;br&gt;&lt;/div&gt;" style="rounded=0;whiteSpace=wrap;html=1;" vertex="1" parent="1">
          <mxGeometry x="360" y="116" width="120" height="60" as="geometry" />
        </mxCell>
        <mxCell id="uKpQfgs0L2vMdA5PXsSt-15" style="edgeStyle=orthogonalEdgeStyle;rounded=0;orthogonalLoop=1;jettySize=auto;html=1;exitX=0.5;exitY=1;exitDx=0;exitDy=0;exitPerimeter=0;entryX=0.5;entryY=0;entryDx=0;entryDy=0;" edge="1" parent="1" source="uKpQfgs0L2vMdA5PXsSt-4" target="uKpQfgs0L2vMdA5PXsSt-2">
          <mxGeometry relative="1" as="geometry" />
        </mxCell>
        <mxCell id="uKpQfgs0L2vMdA5PXsSt-4" value="Inicio" style="strokeWidth=2;html=1;shape=mxgraph.flowchart.terminator;whiteSpace=wrap;" vertex="1" parent="1">
          <mxGeometry x="370" y="11" width="100" height="60" as="geometry" />
        </mxCell>
        <mxCell id="uKpQfgs0L2vMdA5PXsSt-5" value="&lt;b&gt;Fin&lt;/b&gt;" style="strokeWidth=2;html=1;shape=mxgraph.flowchart.terminator;whiteSpace=wrap;" vertex="1" parent="1">
          <mxGeometry x="368" y="1032" width="100" height="60" as="geometry" />
        </mxCell>
        <mxCell id="uKpQfgs0L2vMdA5PXsSt-31" style="edgeStyle=orthogonalEdgeStyle;rounded=0;orthogonalLoop=1;jettySize=auto;html=1;exitX=0.5;exitY=1;exitDx=0;exitDy=0;exitPerimeter=0;entryX=0.5;entryY=0;entryDx=0;entryDy=0;" edge="1" parent="1" source="uKpQfgs0L2vMdA5PXsSt-6" target="uKpQfgs0L2vMdA5PXsSt-28">
          <mxGeometry relative="1" as="geometry" />
        </mxCell>
        <mxCell id="uKpQfgs0L2vMdA5PXsSt-6" value="&lt;b&gt;&quot;Ha acertado&quot;&lt;/b&gt;" style="strokeWidth=2;html=1;shape=mxgraph.flowchart.display;whiteSpace=wrap;" vertex="1" parent="1">
          <mxGeometry x="146.5" y="780" width="100" height="60" as="geometry" />
        </mxCell>
        <mxCell id="uKpQfgs0L2vMdA5PXsSt-20" style="edgeStyle=orthogonalEdgeStyle;rounded=0;orthogonalLoop=1;jettySize=auto;html=1;exitX=0.5;exitY=1;exitDx=0;exitDy=0;exitPerimeter=0;" edge="1" parent="1" source="uKpQfgs0L2vMdA5PXsSt-7" target="uKpQfgs0L2vMdA5PXsSt-11">
          <mxGeometry relative="1" as="geometry" />
        </mxCell>
        <mxCell id="uKpQfgs0L2vMdA5PXsSt-7" value="&lt;b&gt;&quot;Ingrese un numero&quot;&lt;/b&gt;" style="strokeWidth=2;html=1;shape=mxgraph.flowchart.display;whiteSpace=wrap;" vertex="1" parent="1">
          <mxGeometry x="370" y="397" width="100" height="60" as="geometry" />
        </mxCell>
        <mxCell id="uKpQfgs0L2vMdA5PXsSt-30" style="edgeStyle=orthogonalEdgeStyle;rounded=0;orthogonalLoop=1;jettySize=auto;html=1;entryX=0.5;entryY=0;entryDx=0;entryDy=0;" edge="1" parent="1" source="uKpQfgs0L2vMdA5PXsSt-8" target="uKpQfgs0L2vMdA5PXsSt-28">
          <mxGeometry relative="1" as="geometry">
            <Array as="points">
              <mxPoint x="631" y="860" />
              <mxPoint x="423" y="860" />
            </Array>
          </mxGeometry>
        </mxCell>
        <mxCell id="uKpQfgs0L2vMdA5PXsSt-8" value="&lt;b&gt;&quot;Vuelva a intentarlo&quot;&lt;/b&gt;" style="strokeWidth=2;html=1;shape=mxgraph.flowchart.display;whiteSpace=wrap;" vertex="1" parent="1">
          <mxGeometry x="581" y="777" width="100" height="60" as="geometry" />
        </mxCell>
        <mxCell id="uKpQfgs0L2vMdA5PXsSt-18" style="edgeStyle=orthogonalEdgeStyle;rounded=0;orthogonalLoop=1;jettySize=auto;html=1;exitX=0.5;exitY=1;exitDx=0;exitDy=0;exitPerimeter=0;" edge="1" parent="1" source="uKpQfgs0L2vMdA5PXsSt-9" target="uKpQfgs0L2vMdA5PXsSt-17">
          <mxGeometry relative="1" as="geometry" />
        </mxCell>
        <mxCell id="uKpQfgs0L2vMdA5PXsSt-34" style="edgeStyle=orthogonalEdgeStyle;rounded=0;orthogonalLoop=1;jettySize=auto;html=1;exitX=1;exitY=0.5;exitDx=0;exitDy=0;exitPerimeter=0;" edge="1" parent="1" source="uKpQfgs0L2vMdA5PXsSt-9" target="uKpQfgs0L2vMdA5PXsSt-33">
          <mxGeometry relative="1" as="geometry" />
        </mxCell>
        <mxCell id="uKpQfgs0L2vMdA5PXsSt-9" value="&lt;b&gt;respuesta != secreto&lt;/b&gt;" style="strokeWidth=2;html=1;shape=mxgraph.flowchart.decision;whiteSpace=wrap;" vertex="1" parent="1">
          <mxGeometry x="370" y="217" width="100" height="100" as="geometry" />
        </mxCell>
        <mxCell id="uKpQfgs0L2vMdA5PXsSt-22" style="edgeStyle=orthogonalEdgeStyle;rounded=0;orthogonalLoop=1;jettySize=auto;html=1;" edge="1" parent="1" source="uKpQfgs0L2vMdA5PXsSt-10" target="uKpQfgs0L2vMdA5PXsSt-13">
          <mxGeometry relative="1" as="geometry" />
        </mxCell>
        <mxCell id="uKpQfgs0L2vMdA5PXsSt-23" style="edgeStyle=orthogonalEdgeStyle;rounded=0;orthogonalLoop=1;jettySize=auto;html=1;exitX=1;exitY=0.5;exitDx=0;exitDy=0;exitPerimeter=0;" edge="1" parent="1" source="uKpQfgs0L2vMdA5PXsSt-10" target="uKpQfgs0L2vMdA5PXsSt-14">
          <mxGeometry relative="1" as="geometry" />
        </mxCell>
        <mxCell id="uKpQfgs0L2vMdA5PXsSt-10" value="&lt;b&gt;numero == secreto&lt;/b&gt;" style="strokeWidth=2;html=1;shape=mxgraph.flowchart.decision;whiteSpace=wrap;" vertex="1" parent="1">
          <mxGeometry x="370" y="576" width="100" height="100" as="geometry" />
        </mxCell>
        <mxCell id="uKpQfgs0L2vMdA5PXsSt-11" value="&lt;b&gt;numero&lt;/b&gt;" style="shape=parallelogram;html=1;strokeWidth=2;perimeter=parallelogramPerimeter;whiteSpace=wrap;rounded=1;arcSize=12;size=0.23;" vertex="1" parent="1">
          <mxGeometry x="370" y="484" width="100" height="60" as="geometry" />
        </mxCell>
        <mxCell id="uKpQfgs0L2vMdA5PXsSt-12" value="&lt;b&gt;respuesta = numero&lt;/b&gt;" style="rounded=0;whiteSpace=wrap;html=1;" vertex="1" parent="1">
          <mxGeometry x="136.5" y="692" width="120" height="60" as="geometry" />
        </mxCell>
        <mxCell id="uKpQfgs0L2vMdA5PXsSt-24" style="edgeStyle=orthogonalEdgeStyle;rounded=0;orthogonalLoop=1;jettySize=auto;html=1;" edge="1" parent="1" source="uKpQfgs0L2vMdA5PXsSt-13" target="uKpQfgs0L2vMdA5PXsSt-12">
          <mxGeometry relative="1" as="geometry" />
        </mxCell>
        <mxCell id="uKpQfgs0L2vMdA5PXsSt-13" value="&lt;b&gt;Verdadero&lt;/b&gt;" style="text;html=1;align=center;verticalAlign=middle;resizable=0;points=[];autosize=1;strokeColor=none;fillColor=none;" vertex="1" parent="1">
          <mxGeometry x="155" y="613" width="83" height="26" as="geometry" />
        </mxCell>
        <mxCell id="uKpQfgs0L2vMdA5PXsSt-25" style="edgeStyle=orthogonalEdgeStyle;rounded=0;orthogonalLoop=1;jettySize=auto;html=1;entryX=0.5;entryY=0;entryDx=0;entryDy=0;" edge="1" parent="1" source="uKpQfgs0L2vMdA5PXsSt-14" target="uKpQfgs0L2vMdA5PXsSt-1">
          <mxGeometry relative="1" as="geometry" />
        </mxCell>
        <mxCell id="uKpQfgs0L2vMdA5PXsSt-14" value="&lt;b&gt;Falso&lt;/b&gt;" style="text;html=1;align=center;verticalAlign=middle;resizable=0;points=[];autosize=1;strokeColor=none;fillColor=none;" vertex="1" parent="1">
          <mxGeometry x="606" y="613" width="50" height="26" as="geometry" />
        </mxCell>
        <mxCell id="uKpQfgs0L2vMdA5PXsSt-16" style="edgeStyle=orthogonalEdgeStyle;rounded=0;orthogonalLoop=1;jettySize=auto;html=1;entryX=0.5;entryY=0;entryDx=0;entryDy=0;entryPerimeter=0;" edge="1" parent="1" source="uKpQfgs0L2vMdA5PXsSt-2" target="uKpQfgs0L2vMdA5PXsSt-9">
          <mxGeometry relative="1" as="geometry" />
        </mxCell>
        <mxCell id="uKpQfgs0L2vMdA5PXsSt-17" value="Verdadero" style="text;html=1;align=center;verticalAlign=middle;resizable=0;points=[];autosize=1;strokeColor=none;fillColor=none;" vertex="1" parent="1">
          <mxGeometry x="382.5" y="344" width="75" height="26" as="geometry" />
        </mxCell>
        <mxCell id="uKpQfgs0L2vMdA5PXsSt-19" style="edgeStyle=orthogonalEdgeStyle;rounded=0;orthogonalLoop=1;jettySize=auto;html=1;entryX=0.5;entryY=0;entryDx=0;entryDy=0;entryPerimeter=0;" edge="1" parent="1" source="uKpQfgs0L2vMdA5PXsSt-17" target="uKpQfgs0L2vMdA5PXsSt-7">
          <mxGeometry relative="1" as="geometry" />
        </mxCell>
        <mxCell id="uKpQfgs0L2vMdA5PXsSt-21" style="edgeStyle=orthogonalEdgeStyle;rounded=0;orthogonalLoop=1;jettySize=auto;html=1;exitX=0.5;exitY=1;exitDx=0;exitDy=0;entryX=0.5;entryY=0;entryDx=0;entryDy=0;entryPerimeter=0;" edge="1" parent="1" source="uKpQfgs0L2vMdA5PXsSt-11" target="uKpQfgs0L2vMdA5PXsSt-10">
          <mxGeometry relative="1" as="geometry" />
        </mxCell>
        <mxCell id="uKpQfgs0L2vMdA5PXsSt-26" style="edgeStyle=orthogonalEdgeStyle;rounded=0;orthogonalLoop=1;jettySize=auto;html=1;exitX=0.5;exitY=1;exitDx=0;exitDy=0;entryX=0.5;entryY=0;entryDx=0;entryDy=0;entryPerimeter=0;" edge="1" parent="1" source="uKpQfgs0L2vMdA5PXsSt-12" target="uKpQfgs0L2vMdA5PXsSt-6">
          <mxGeometry relative="1" as="geometry" />
        </mxCell>
        <mxCell id="uKpQfgs0L2vMdA5PXsSt-27" style="edgeStyle=orthogonalEdgeStyle;rounded=0;orthogonalLoop=1;jettySize=auto;html=1;exitX=0.5;exitY=1;exitDx=0;exitDy=0;entryX=0.5;entryY=0;entryDx=0;entryDy=0;entryPerimeter=0;" edge="1" parent="1" source="uKpQfgs0L2vMdA5PXsSt-1" target="uKpQfgs0L2vMdA5PXsSt-8">
          <mxGeometry relative="1" as="geometry" />
        </mxCell>
        <mxCell id="uKpQfgs0L2vMdA5PXsSt-28" value="respuesta" style="rounded=0;whiteSpace=wrap;html=1;" vertex="1" parent="1">
          <mxGeometry x="363" y="880" width="120" height="60" as="geometry" />
        </mxCell>
        <mxCell id="uKpQfgs0L2vMdA5PXsSt-32" style="edgeStyle=orthogonalEdgeStyle;rounded=0;orthogonalLoop=1;jettySize=auto;html=1;exitX=0.5;exitY=1;exitDx=0;exitDy=0;entryX=0.5;entryY=0;entryDx=0;entryDy=0;entryPerimeter=0;" edge="1" parent="1" source="uKpQfgs0L2vMdA5PXsSt-28" target="uKpQfgs0L2vMdA5PXsSt-9">
          <mxGeometry relative="1" as="geometry">
            <Array as="points">
              <mxPoint x="418" y="940" />
              <mxPoint x="418" y="996" />
              <mxPoint x="66" y="996" />
              <mxPoint x="66" y="197" />
              <mxPoint x="420" y="197" />
            </Array>
          </mxGeometry>
        </mxCell>
        <mxCell id="uKpQfgs0L2vMdA5PXsSt-33" value="Falso" style="text;html=1;align=center;verticalAlign=middle;resizable=0;points=[];autosize=1;strokeColor=none;fillColor=none;" vertex="1" parent="1">
          <mxGeometry x="744" y="254" width="47" height="26" as="geometry" />
        </mxCell>
        <mxCell id="uKpQfgs0L2vMdA5PXsSt-35" style="edgeStyle=orthogonalEdgeStyle;rounded=0;orthogonalLoop=1;jettySize=auto;html=1;entryX=0.5;entryY=0;entryDx=0;entryDy=0;entryPerimeter=0;" edge="1" parent="1" source="uKpQfgs0L2vMdA5PXsSt-33" target="uKpQfgs0L2vMdA5PXsSt-5">
          <mxGeometry relative="1" as="geometry">
            <Array as="points">
              <mxPoint x="768" y="1008" />
              <mxPoint x="418" y="1008" />
            </Array>
          </mxGeometry>
        </mxCell>
      </root>
    </mxGraphModel>
  </diagram>
</mxfile>
